<svg xmlns="http://www.w3.org/2000/svg" version="1.1" xmlns:xlink="http://www.w3.org/1999/xlink" width="48" height="48"><svg xmlns="http://www.w3.org/2000/svg" version="1.1" xmlns:xlink="http://www.w3.org/1999/xlink" width="48" height="48"><svg width="48" height="48" viewBox="0 0 48 48" fill="none" xmlns="http://www.w3.org/2000/svg">
<rect width="48" height="48" rx="24" fill="white"></rect>
<path d="M10.674 18.6922C8.18299 18.5974 6.08669 20.5437 5.99209 23.0395C5.89743 25.5352 7.84009 27.6354 10.3313 27.7302C12.8224 27.8251 14.9186 25.8787 15.0132 23.3829C15.0477 22.473 14.8072 21.5738 14.3232 20.803C14.1528 20.5315 14.0508 20.2225 14.0262 19.9028C13.9425 18.8149 14.755 17.865 15.8409 17.7811C17.7051 17.6371 19.0997 16.0064 18.9561 14.1388C18.8124 12.2711 17.1848 10.8739 15.3206 11.0178C13.4564 11.1617 12.0618 12.7924 12.2054 14.66C12.2375 15.078 12.3468 15.4864 12.5276 15.8646C12.6659 16.1538 12.7317 16.4725 12.7196 16.793C12.6783 17.8833 11.7623 18.7337 10.674 18.6922Z" fill="#0F172A"></path>
<path d="M19.6891 38.3025C19.5945 40.7982 21.5372 42.8984 24.0284 42.9931C26.5194 43.088 28.6157 41.1417 28.7103 38.6458C28.805 36.1501 26.8623 34.05 24.3711 33.9552C23.4629 33.9206 22.5653 34.1616 21.796 34.6465C21.525 34.8172 21.2166 34.9194 20.8975 34.944C19.8116 35.0279 18.8634 34.2139 18.7797 33.126C18.636 31.2583 17.0083 29.8611 15.1442 30.0049C13.28 30.1489 11.8854 31.7796 12.029 33.6472C12.1727 35.5149 13.8003 36.9121 15.6644 36.7682C16.0816 36.7361 16.4893 36.6265 16.8667 36.4455C17.1555 36.3069 17.4735 36.241 17.7934 36.2531C18.8817 36.2945 19.7305 37.2122 19.6891 38.3025Z" fill="#0F172A"></path>
<path d="M30.2741 9.69396C30.3688 7.19832 28.4261 5.0981 25.9349 5.00332C23.4439 4.90849 21.3476 6.85478 21.253 9.35063C21.1583 11.8464 23.101 13.9465 25.5922 14.0413C26.5004 14.0758 27.398 13.8349 28.1672 13.35C28.4383 13.1793 28.7467 13.0771 29.0658 13.0524C30.1517 12.9685 31.0999 13.7826 31.1836 14.8705C31.3273 16.7382 32.955 18.1353 34.8191 17.9915C36.6833 17.8476 38.0779 16.2169 37.9343 14.3493C37.7906 12.4816 36.163 11.0844 34.2988 11.2282C33.8817 11.2604 33.474 11.3699 33.0965 11.551C32.8078 11.6896 32.4897 11.7555 32.1698 11.7434C31.0816 11.702 30.2328 10.7843 30.2741 9.69396Z" fill="#0F172A"></path>
<path d="M37.8862 33.5309C37.8862 35.4054 36.3694 36.925 34.4984 36.925C32.6273 36.925 31.1105 35.4054 31.1105 33.5309C31.1105 31.6563 32.6273 30.1367 34.4984 30.1367C36.3694 30.1367 37.8862 31.6563 37.8862 33.5309Z" fill="#0F172A"></path>
</svg></svg><style>@media (prefers-color-scheme: light) { :root { filter: none; } }
@media (prefers-color-scheme: dark) { :root { filter: none; } }
</style></svg>